<?xml version="1.0" encoding="UTF-8" standalone="no"?>
<!-- Created with Inkscape (http://www.inkscape.org/) -->

<svg
   width="210mm"
   height="297mm"
   viewBox="0 0 210 297"
   version="1.1"
   id="svg14754"
   inkscape:version="1.1.2 (0a00cf5339, 2022-02-04)"
   sodipodi:docname="logo-dspy-community.svg"
   xmlns:inkscape="http://www.inkscape.org/namespaces/inkscape"
   xmlns:sodipodi="http://sodipodi.sourceforge.net/DTD/sodipodi-0.dtd"
   xmlns="http://www.w3.org/2000/svg"
   xmlns:svg="http://www.w3.org/2000/svg">
  <sodipodi:namedview
     id="namedview14756"
     pagecolor="#ffffff"
     bordercolor="#666666"
     borderopacity="1.0"
     inkscape:pageshadow="2"
     inkscape:pageopacity="0.0"
     inkscape:pagecheckerboard="0"
     inkscape:document-units="mm"
     showgrid="false"
     inkscape:zoom="20.496745"
     inkscape:cx="433.48346"
     inkscape:cy="354.42213"
     inkscape:window-width="5120"
     inkscape:window-height="1376"
     inkscape:window-x="0"
     inkscape:window-y="27"
     inkscape:window-maximized="1"
     inkscape:current-layer="layer1" />
  <defs
     id="defs14751" />
  <g
     inkscape:label="Layer 1"
     inkscape:groupmode="layer"
     id="layer1">
    <path
       style="fill:none;stroke:#ef4036;stroke-width:2.365;stroke-linecap:round;stroke-linejoin:round;stroke-miterlimit:4;stroke-dasharray:none;stroke-opacity:1"
       d="m 94.162493,66.877021 c -7.739123,0.03209 -15.586874,0.106011 -23.705097,0.0054 -0.18974,11.78081 -0.25882,18.30425 -0.14471,44.153469 15.19564,0.97984 31.029614,0.34094 46.617364,0.32643 0.12463,-7.49779 -0.0261,-14.57856 -0.0573,-21.860871"
       id="path869-7"
       sodipodi:nodetypes="ccccc" />
    <path
       style="fill:none;stroke:#ef4036;stroke-width:2.365;stroke-linecap:round;stroke-linejoin:round;stroke-miterlimit:4;stroke-dasharray:none;stroke-opacity:1"
       d="m 70.429676,88.428459 8.20971,0.45089 c 0,0 -3.11615,6.15003 2.89606,5.94898 5.60615,-0.18746 3.27954,-6.23692 3.27954,-6.23692 l 8.3613,0.877"
       id="path871-9"
       sodipodi:nodetypes="ccscc" />
    <path
       style="fill:none;stroke:#ef4036;stroke-width:2.365;stroke-linecap:round;stroke-linejoin:round;stroke-miterlimit:4;stroke-dasharray:none;stroke-opacity:1"
       d="m 94.144476,67.014639 0.14543,7.54074 c 0,0 -5.21396,-2.27737 -4.97777,3.12495 0.24499,5.60393 5.3031,3.13327 5.3031,3.13327 l -1.43895,8.65481"
       id="path871-6-6"
       sodipodi:nodetypes="ccscc" />
    <path
       style="fill:none;stroke:#ef4036;stroke-width:2.365;stroke-linecap:round;stroke-linejoin:round;stroke-miterlimit:4;stroke-dasharray:none;stroke-opacity:1"
       d="m 93.005776,111.17761 -0.002,-7.62854 c 0,0 6.59917,3.99569 6.40146,-3.47723 -0.14835,-5.607321 -6.47245,-2.005568 -6.47245,-2.005568 l 0.24309,-8.597863"
       id="path871-8-0"
       sodipodi:nodetypes="ccscc" />
    <path
       style="fill:none;stroke:#ef4036;stroke-width:2.365;stroke-linecap:round;stroke-linejoin:round;stroke-miterlimit:4;stroke-dasharray:none;stroke-opacity:1"
       d="m 93.176276,89.468409 8.833874,1.00717 c 0,0 -3.022034,-6.28551 3.38134,-5.96025 5.82433,0.29585 2.89364,5.62294 2.89364,5.62294 l 8.58762,-0.63682"
       id="path871-3-4"
       sodipodi:nodetypes="ccscc" />
    <g
       id="g11720"
       transform="matrix(0,0.70003619,-0.70003619,0,115.16979,10.777735)">
      <path
         style="fill:none;stroke:#ef4036;stroke-width:2.365;stroke-linecap:round;stroke-linejoin:round;stroke-miterlimit:4;stroke-dasharray:none;stroke-opacity:1"
         d="m 74.49999,14.714674 0.002,-7.62854 c 0,0 -6.59917,3.99569 -6.40146,-3.47723 0.14835,-5.60732 6.47245,-2.00557 6.47245,-2.00557 l -0.24309,-8.59786"
         id="path871-8-0-8"
         sodipodi:nodetypes="ccscc" />
      <path
         style="fill:none;stroke:#ef4036;stroke-width:2.365;stroke-linecap:round;stroke-linejoin:round;stroke-miterlimit:4;stroke-dasharray:none;stroke-opacity:1"
         d="m 74.32988,-6.994526 8.83387,1.00717 c 0,0 -3.02203,-6.28551 3.381348,-5.96025 5.82433,0.29585 2.89364,5.62294 2.89364,5.62294 l 8.58762,-0.63682"
         id="path871-3-4-6"
         sodipodi:nodetypes="ccscc" />
      <path
         style="fill:none;stroke:#ef4036;stroke-width:2.365;stroke-linecap:round;stroke-linejoin:round;stroke-miterlimit:4;stroke-dasharray:none;stroke-opacity:1"
         d="m 98.054741,14.613721 0.143717,-7.494542 c -0.0186,-0.0192 -7.505683,3.059391 -6.401463,-3.47723 0.93433,-5.530926 6.472453,-2.005575 6.472453,-2.005575 l -0.24309,-8.59786"
         id="path871-8-0-7"
         sodipodi:nodetypes="ccscc" />
      <path
         style="fill:none;stroke:#ef4036;stroke-width:2.365;stroke-linecap:round;stroke-linejoin:round;stroke-miterlimit:4;stroke-dasharray:none;stroke-opacity:1"
         d="m 98.054741,14.613721 -9.474093,-0.07115 c -0.0192,0.0186 3.05939,7.50569 -3.477228,6.40147 -5.53092,-0.93433 -2.00557,-6.47246 -2.00557,-6.47246 l -8.59786,0.24309"
         id="path871-8-0-7-0"
         sodipodi:nodetypes="ccscc" />
    </g>
  </g>
</svg>
